<mxfile host="app.diagrams.net" modified="2024-06-20T12:27:31.498Z" agent="Mozilla/5.0 (Windows NT 10.0; Win64; x64) AppleWebKit/537.36 (KHTML, like Gecko) Chrome/126.0.0.0 Safari/537.36" version="24.5.5" etag="8TdxUMmGiHr6d0hS2Q7H" type="github">
  <diagram name="Страница — 1" id="3aGViGvEmoTXxW5057U7">
    <mxGraphModel>
      <root>
        <mxCell id="0" />
        <mxCell id="1" parent="0" />
      </root>
    </mxGraphModel>
  </diagram>
</mxfile>
